<?xml version="1.0" encoding="utf-8"?>
<!-- Generator: Adobe Illustrator 24.3.0, SVG Export Plug-In . SVG Version: 6.00 Build 0)  -->
<svg version="1.1" id="Layer_1" xmlns="http://www.w3.org/2000/svg" xmlns:xlink="http://www.w3.org/1999/xlink" x="0px" y="0px"
	 viewBox="0 0 1920 1080" style="enable-background:new 0 0 1920 1080;" xml:space="preserve">
<style type="text/css">
	.st0{fill:#FDFDFD;}
	.st1{fill:#62BA47;}
	.st2{fill:#707373;}
	.st3{fill:#A9DEF6;}
	.st4{fill:#3E459C;}
</style>
<ellipse class="st0" cx="547.5" cy="423.34" rx="220.77" ry="220.79"/>
<path class="st1" d="M900.09,443.55c0.06-0.99,0.13-1.97,0.2-2.95c-0.47-1.2-0.93-2.41-1.36-3.62c0,1.09,0.02,2.18,0.04,3.28
	C899.35,441.35,899.72,442.45,900.09,443.55z"/>
<path class="st1" d="M550.13,205.66c-9.9,0-19.64,0.68-29.2,1.95c-0.01,0.02-0.01,0.05-0.02,0.07c-2.17,6.43-4.49,12.77-5.73,19.47
	c-0.37,1.99-1.68,3.09-3.23,3.44c2.06,2.86,4.09,5.75,6.1,8.65c10.12,6.86,19.18,15.13,28.71,22.82c3.28,2.65,6.64,5.07,10.13,7.3
	c0.76-1.37,1.59-2.67,2.51-3.9c-2.09-3.31-3.7-6.9-4.63-10.82c-1.2-5.09,4.94-7.8,8.08-5.27c-0.64-2.4,0.28-5,3.43-5.46
	c0.63-0.09,1.26-0.15,1.88-0.2c2.08-2.79,6.07-3.06,8.35,0.21c0.19,0.27,0.34,0.54,0.52,0.82c1.01,0.32,1.99,0.72,2.94,1.17
	c2.11-0.1,4.39,0.81,6.75,3.2c1.99,2.02,3.5,4.43,4.58,7.05c7.56,11.46,9.19,28.28,2.5,39.53c3.7,5.31,6.63,11.22,9.24,17.12
	c5.08,11.49,8.94,23.44,12.9,35.35c1.95,5.87-6.01,7.99-9.14,3.85c-1.54-2.04-3.03-4.12-4.49-6.22c-0.33,0.36-0.71,0.67-1.13,0.94
	c0.08,0.08,0.15,0.16,0.23,0.24c12.27,12.93,24.52,25.88,36.23,39.31c22.51,25.81,44.34,52.35,63.05,81.08
	c13.74,21.09,33.2,38.58,45.57,60.51c15.72-30.36,24.62-64.84,24.62-101.4C770.89,304.52,672.05,205.66,550.13,205.66z"/>
<path class="st1" d="M522.7,370.98c-1.57-3.82-3.39-7.55-4.65-11.47c-2.21-6.89,1.63-12.15,8.32-11.76
	c4.45,0.26,5.98,2.42,4.44,6.55c-0.63,1.7-1.47,3.37-2.51,4.85c-1.41,2-0.18,2.92,1.14,4.09c1.43,1.27,2.47,1.17,3.72-0.28
	c3.44-3.99,7.42-7.12,12.94-7.76c2.43-0.28,2.59-2.59,2.53-4.21c-0.08-2.14-2.14-1.53-3.54-1.48c-0.99,0.03-2.05,0.12-2.94,0.51
	c-2.9,1.27-4.51,1.02-5.73-2.53c-1.49-4.33-7.17-6.41-12.74-5.57c-6.35,0.96-11.27,5.45-12,11.01c-0.19,1.45-0.19,2.93-0.28,4.64
	c-4.35-1.62-8.52-3.18-12.7-4.72c-1.24-0.46-1.69-1.43-2.03-2.61c-9.8-34.11-13.95-68.45-3.33-103.15
	c4.1-13.41,11.02-25.17,20.16-36.17c5.8-6.97,11.91-8.81,19.76-8.89c16.47-0.17,32.92-0.75,49.32,1.85
	c26.66,4.23,51.79,12.71,75.18,26.15c14.24,8.18,27.66,17.55,39.69,28.79c1.68,1.57,3.16,3.35,4.73,5.03
	c0.76,0.6,0.59,1.43,0.6,2.26c0.16,15.13,6.96,21.57,19.76,19.66c7.24,9.14,13.82,18.72,19.3,29.03
	c-10.39,1.83-19.69,6.75-26.08,14.55c-10.38,12.66-15.89,27.88-18.38,44.2c-2.57,16.84-3.41,33.69-1.61,50.63
	c1.74,16.41,4.42,32.58,13.11,47.06c3,5,6.39,9.69,10.77,13.64c10.99,9.93,24.14,12.68,38.43,11.74
	c-6.31,19.83-15.86,38.05-27.75,55.04c-15.82,22.6-35.03,41.87-58.01,57.2c-38.19,25.47-80.12,37.98-126.23,37.35
	c-50.56-0.68-95.49-16.67-134.58-48.25c-47.25-38.18-75.84-87.7-81.61-148.27c-8.7-91.25,25.94-163.01,102.03-214.49
	c1.07-0.73,2.26-1.28,3.38-1.9c1.01,1.43,0,2.36-0.49,3.34c-16.19,32.16-17.02,65.5-7.5,99.57c0.98,3.5,2.13,6.22-1.94,8.81
	c-2.85,1.82-4.29,6.81-6.23,14.67c-2.25-0.58-3.38-2.54-4.91-3.91c-6.2-5.56-12.3-11.25-20.43-14.02c-4.21-1.43-7.71-0.78-10.85,2.6
	c-3.18,3.42-4.09,7.13-2.52,11.46c1.5,4.16,4.23,7.52,7.24,10.66c9.55,9.94,20.9,17.51,32.49,24.78c1.39,0.87,2.75,1.79,4.48,2.92
	c-4.28,2.45-8.28,4.6-12.13,7c-2.54,1.58-4.86,3.51-6.67,5.96c-3.96,5.37-2.51,11.01,3.49,14.06c3.86,1.97,8.05,1.64,12.69,2
	c-3.75,8.64-7.32,17.02-9.89,25.76c-4.56,15.48-7.06,31.24-4.93,47.34c3.52,26.61,18.98,43.56,43.78,52.61
	c15.52,5.67,31.73,7.2,49.22,7.93c-6.28,7.29-11.64,14.32-16.59,22.81c10.43-2.15,20.1-4.14,31.19-6.42
	c-6.3,8.76-11.7,16.26-17.95,24.93c9.85-1.68,18.49-3.15,27.86-4.75c-4.97,11.76-9.38,22.9-5.77,35.23
	c1.83,0.23,2.86-1.07,4.04-1.86c21.45-14.41,42.36-29.49,60.7-47.84c1.47,0.18,2.94,0.37,4.42,0.54
	c10.21,1.21,20.42,2.46,30.63-0.12c10.8-2.73,18.55-10.18,26.27-17.41c15.68-14.66,23.69-34.05,31.9-53.27
	c1.23-2.88-0.02-5.1-1.35-7.44c-7.45-13.11-14.95-26.19-22.26-39.39c-1.05-1.9-3.48-3.73-1.5-6.78c0.27-0.41-3.79-2.34-5.13-4.88
	c-4.72-8.94-9.95-17.61-14.96-26.39c-0.91-1.59-1.74-3.79-3.99-2.46c-1.9,1.12-0.63,2.85,0.18,4.34c1.75,3.21,3.31,6.52,5.09,9.72
	c1.29,2.33,0.61,3.79-1.7,4.69c-4.62,1.8-9.07,4.13-14.07,4.83c-2.54-8.42-1.45-16.15,3.36-23.7c2.92-4.59,4.72-9.91,5.7-15.36
	c0.77-4.3,0.44-8.13-4.91-9.2c-2.75-0.55-1.3-2-0.78-3.29c1.32-3.27,2.3-6.48,1.25-10.15c-2.03-7.06-2.95-8.04-10.05-8.91
	c0.06-0.64,0.05-1.29,0.19-1.92c2.21-10.19-2.15-14.53-12.03-11.57c-4.04,1.21-6.92,2.01-10.45-2.02
	c-3.72-4.25-10.03-3.83-15.46-4.6c-1.49-0.21-3.52,0.51-3.31-2.36c0.18-2.46,1.15-3.57,3.69-3.58c4.66-0.01,9.33-0.13,13.89-1.33
	c2.93-0.77,5.77-1.78,7.89-4.05c3.47-3.71,4.67-8.09,2.86-12.89c-1.78-4.72-5.97-5.25-10.32-5.32c-4.11-0.06-7.74,1.61-11.93,3.35
	c2.18-9.24,4.37-18.03,6.32-26.88c1.5-6.82,2.82-13.7,2.64-20.75c-0.04-1.66-0.03-3.38-0.47-4.95c-1.02-3.69-1.95-7.68-6.67-8.37
	c-4.9-0.71-7.87,2.15-9.87,6.09c-4.91,9.65-6.4,20.22-7.98,30.75c-0.44,2.91-0.83,5.83-1.29,9.08c-3.66-2.28-6.9-4.57-10.38-6.4
	c-4.7-2.48-8.83-1.63-12.17,2.05c-3.03,3.34-3.15,7.49-0.17,11.9c3.17,4.69,7.45,8.27,12.05,11.45c3.1,2.15,4.69,4.57,3.79,8.6
	c-1.8,8.11-3.14,16.33-4.83,24.47c-0.72,3.45,0.21,4.97,3.89,4.73c2.32-0.15,4.66,0.15,6.99,0.17c2.81,0.03,6.09,0.88,8.29-0.28
	c2.16-1.14,1.62-4.76,1.99-7.35c0.27-1.9,1.37-2.5,3.13-2.3c2.15,0.25,4.31,0.38,6.44,0.74c3.59,0.61,8.12,0.77,8.9,5.03
	c0.83,4.48-2.24,8.13-5.29,11.33c-1.44,1.51-3.06,0.8-4.66,0.41c-4.53-1.09-9.05-2.17-13.58-3.23c-1.6-0.38-3.09-0.42-3.06,1.88
	c0.02,1.69-0.79,3.57,2.22,3.97c4.6,0.62,9.17,1.62,13.66,2.8c2.54,0.67,4.98,1.87,7.31,3.1c1.82,0.96,3.29,2.5,2.6,4.86
	c-0.64,2.17-2.71,2.46-4.48,2.51c-5.39,0.14-10.5-1.46-15.62-2.93c-2.14-0.62-4.31-2.64-6.36,0.81c-2.01,3.39,0.85,4.35,2.22,6.12
	c1.42,1.84,3.14,3.49,4.35,5.45c2.24,3.63,1.02,5.82-3.28,5.62c-6.4-0.3-12.31-2.67-18.19-5.02c-1.89-0.76-1.48-2.43-1.37-3.85
	c0.18-2.36-0.27-3.72-3.16-3.64c-2.77,0.07-2.77,1.6-2.78,3.58c-0.07,8.6-2,16.83-5.32,24.71c-1.2,2.85-2.77,6.74-6.39,5.95
	c-3.74-0.81-2.49-4.97-2.43-7.78c0.08-3.47,0.53-6.98,1.24-10.38c0.43-2.08,0.03-2.96-1.94-3.67c-2.08-0.75-3.34-0.62-4.36,1.6
	c-2.57,5.6-5.31,11.12-8.75,16.25c-1.36,2.02-2.43,4.36-5.12,5.53c-1.78-4.27-1.05-8.6-0.95-12.86c0.05-2.17,1.56-5.19-1.63-5.79
	c-3.67-0.69-3.76,2.69-4.44,5.29c-2.12,8.14-5.65,15.64-11.06,22.13c-3.09,3.7-6.71,6.68-12.06,5.23c-4.73-1.29-9.52-7.48-10-12.69
	c-0.43-4.66,0.96-8.88,3.15-12.89c3.63-6.65,8.4-12.42,14.05-17.4c2.04-1.8,1.87-2.94,0.25-4.84c-1.96-2.3-3.3-0.82-4.37,0.56
	c-2.4,3.1-4.56,3.03-7.24,0.3c-1.97-2.01-4.38-3.58-6.53-5.42c-4.67-3.99-4.22-8.5,1.22-11.57c3.24-1.83,6.82-2.73,10.51-2.83
	c5.32-0.15,10.66-0.15,15.98-0.03c2.07,0.05,3.05-0.49,3.16-2.69c0.09-1.85,0.09-3.08-2.24-3.54c-4.08-0.8-8.12-1.91-11.73-4.09
	c-2.16-1.31-4.4-2.79-4.06-5.75c0.32-2.84,2.6-4.11,4.98-5.06c3.71-1.48,7.52-1.12,11.3-0.31c8.92,1.92,16.85,6.06,24.48,10.91
	c1.6,1.02,2.9,2.86,5.2,2.47c0.1,0.19,0.2,0.37,0.3,0.56c0-0.1,0.04-0.24,0-0.28C522.98,371.09,522.83,371.04,522.7,370.98z
	 M690.5,285.19c-2.93-5.63-3.37-12.2-8.56-16.77c5.07-1.57,7.22-5,6.53-9.88c-0.75-5.26-4.61-7.57-9.39-8.19
	c-3.44-0.45-6.98-0.17-10.47-0.22c-1.48-0.02-2.71,0.34-2.71,2.13c-0.02,10.32-0.01,20.64,0,30.96c0,1.63,0.96,2.4,2.52,2.47
	c2.12,0.1,2.39-1.28,2.38-2.94c-0.03-3,0.19-6.01-0.06-8.98c-0.28-3.3,1.25-3.92,4.12-3.8c2.92,0.12,4.7,1.68,5.8,4.02
	c1.2,2.54,2.33,5.2,2.92,7.93C684.46,285.98,686.78,286.34,690.5,285.19z M629.84,267.81c0,4.66,0.01,9.32,0,13.98
	c-0.01,1.92-0.02,3.86,2.65,3.86c3.01,0,2.15-2.36,2.24-4.02c0.11-1.99,0.02-3.99,0.03-5.99c0.02-5.8,0.67-6.37,6.22-5.4
	c4.54,0.79,9.67-2.64,11.17-7.46c1.46-4.7-0.77-9.64-5.61-11.29c-3.25-1.11-6.75-1.94-10.16-1.99c-6.17-0.1-6.52,0.55-6.53,6.82
	C629.84,260.15,629.84,263.98,629.84,267.81z"/>
<path class="st2" d="M617.17,444.91c5-0.7,9.45-3.03,14.07-4.83c2.31-0.9,2.99-2.36,1.7-4.69c-1.77-3.2-3.34-6.51-5.09-9.72
	c-0.81-1.49-2.07-3.22-0.18-4.34c2.25-1.33,3.08,0.87,3.99,2.46c5.02,8.78,10.25,17.45,14.96,26.39c1.34,2.54,5.4,4.46,5.13,4.88
	c-1.98,3.05,0.45,4.88,1.5,6.78c7.31,13.19,14.81,26.28,22.26,39.39c1.33,2.33,2.58,4.55,1.35,7.44
	c-8.21,19.22-16.22,38.61-31.9,53.27c-7.72,7.22-15.47,14.67-26.27,17.41c-10.21,2.58-20.42,1.34-30.63,0.12
	c-1.47-0.18-2.94-0.36-4.42-0.54c-2.49-0.99-5.05-1.39-7.72-1.03c-0.73-0.34-1.42-0.82-2.19-1c-18.88-4.43-37.13-10.7-54.86-18.53
	c-2.63-1.16-5.86-1.88-6.32-5.6c-2.24-2.94-4.49-5.88-6.73-8.83c-0.86-2.32-2.61-4.02-4.12-5.88c-1.96-3.99-3.72-8.12-7.78-10.57
	c-2.2-6.76-6.93-11.9-11.11-17.39c-0.9-2.84-2.55-5.16-4.87-7.01c-1.66-4.11-4.43-7.49-7.14-10.91c-0.88-1.54-1.76-3.08-2.65-4.61
	c-0.8-1.38-2.07-2.69-0.92-4.44c1.14-1.73,2.78-1.31,4.39-0.91c0.35,1.88,1.89,2.91,3.03,4.23c0.81,2.6,2.58,4.59,4.21,6.67
	c2.27,3.26,4.53,6.52,6.8,9.77c2.19,4.28,5.04,8.11,7.94,11.91c1.85,2.86,2.97,6.28,6.19,8.1l-0.05-0.07
	c-0.05,0.89,0.13,1.68,0.98,2.17c0.92,2.31,2.16,4.41,4.01,6.11c0.75,1.33,1.51,2.66,2.26,3.99c0.59,0.27,0.68,1.61,1.76,0.82
	l-0.07-0.06c-0.18,2.62,1.47,4.04,3.57,5.82c0.09-2.14,0.23-3.72-0.64-5.19c0.01-2.24,0.01-4.49,0.02-6.73
	c-0.02-1.9-0.03-3.8-0.05-5.7c-0.01-1.05-0.02-2.11-0.03-3.16c-0.05-1.94-0.1-3.88-0.15-5.82c0.75-2.85-1.01-5.49-0.72-8.3
	c-0.04-2.79-0.08-5.59-0.11-8.38c-0.32-0.48-0.63-0.97-0.95-1.45l0.06,0.13c-0.3-1.03-1.1-1.19-2.02-1.14l0.04,0.06
	c0.13-1.97-1.41-2.93-2.57-4.03c-11.08-10.47-22.17-20.92-33.32-31.32c-6.05-5.64-12.21-11.16-18.32-16.74
	c-0.58-1.15-1.17-2.31-1.75-3.46c1.36-1.7,2.8-3.14,5.15-1.56c3.95,3.64,7.89,7.29,11.84,10.93c0.39,0.87,1.13,1.13,2.01,1.16
	c0,0-0.06-0.02-0.06-0.02c0.36,3.36,3.61,4.12,5.56,5.99c11.84,11.34,23.84,22.51,35.69,33.84c1.68,1.61,3.03,2.26,5.15,0.99
	c1.41-0.84,3.04-1.3,4.54-1.98c10.74-4.85,21.31-9.97,29.4-18.94c2.37-0.36,3.89-1.86,5.1-3.79c9.47-6.79,19.28-12.91,30.64-16.08
	c2.12,0.16,4.11-0.33,6.06-1.09c6.53-1.19,13.05-2.37,19.58-3.56C614.01,445.89,615.78,446.03,617.17,444.91z M534.58,545.2
	c0.47,4.22,0.99,7.66,1.19,11.11c0.18,3.11,1.59,4.83,4.6,5.65c6.1,1.66,12.14,3.54,18.21,5.29c18.44,5.32,37.14,7.41,56.26,4.67
	c3.67-0.53,7.15-1.54,10.35-3.41c13.81-8.04,25.17-18.52,32.67-32.84c3.78-7.23,7.47-14.5,11.35-21.67c1.74-3.22,1.8-6.07,0-9.39
	c-10.26-18.86-20.32-37.82-30.5-56.71c-1.02-1.89-1.62-4.76-5.02-2.88c-3.05,1.68-1.9,3.6-0.76,5.81
	c8.16,15.83,16.26,31.69,24.37,47.54c1.66,3.25,3.35,6.5,4.91,9.81c1.25,2.65,0.64,5.16-1.97,6.39c-2.76,1.3-3.04-1.64-4.1-3.14
	c-0.71-1.01-0.69-2.55-2.37-3.19c-9.23,10.94-19.29,21.11-30.66,29.87c-9.89,7.61-20.92,11.79-33.69,11.95
	C571.18,550.29,553.16,549.04,534.58,545.2z M644.43,488.09c-0.76,0.66-1.39,1.15-1.96,1.7c-15.04,14.36-32.38,24.91-52.19,31.29
	c-17.1,5.51-34.67,7.6-52.61,6.87c-1.59-0.06-3.57-0.76-4.75,0.71c-2.46,3.07,1.23,11.7,5.14,12.27c8.38,1.22,16.72,2.84,25.14,3.49
	c13.79,1.06,27.63,1.35,40.94-3.52c19.38-7.08,33.05-21.26,45.53-36.88c1.01-1.26,1.36-2.71,0.58-4.2
	C648.3,496.03,647.16,491.8,644.43,488.09z M531.39,505.45c1.8-0.46,3.41-0.83,5-1.29c7.33-2.12,14.69-4.12,21.96-6.43
	c25.09-7.97,48.95-18.7,71.48-32.33c1.16-0.7,3.08-1.09,1.97-3.23c-2.07-3.97-3.37-8.76-6.46-11.63c-2.26-2.1-6.55,0.68-9.95,1.11
	c-0.82,0.1-1.66,0.18-2.47,0.32c-14.77,2.53-29.48,5.33-42.55,13.24c-13.79,8.34-26.09,18.97-40.43,26.5
	c-2.14,1.13-1.83,12.51,0.23,13.61C530.55,505.52,531.1,505.42,531.39,505.45z M544.34,522.92c0-0.02,0-0.03,0-0.05
	c2.5,0,5,0.11,7.49-0.03c2.65-0.15,5.27-0.56,7.92-0.79c28.41-2.47,53.34-12.96,74.52-32.18c8.06-7.31,8-7.24,3.03-16.97
	c-1.39-2.71-2.4-3.27-5.16-1.47c-29.32,19.11-61.47,31.32-95.67,38.11c-5.26,1.04-6.36,3.03-5.66,7.84c0.6,4.15,2.03,6.28,6.57,5.6
	C539.63,522.64,542.01,522.92,544.34,522.92z M516.7,504.15c1.05,15.25,2.33,30.3,2.97,45.38c0.19,4.63,2.69,5.95,6.1,7.1
	c2.06,0.69,2.59-0.09,2.35-2.21c-0.62-5.44-0.94-10.92-1.48-16.37c-1.31-13.36-2.75-26.72-3.95-40.09
	c-0.29-3.19-1.65-3.11-3.86-2.06C514.67,497.87,517.55,501.54,516.7,504.15z"/>
<path class="st1" d="M456.91,438.88c-2.35-1.58-3.79-0.14-5.15,1.56c-6.68,2.09-13.24,4.52-19.06,8.45
	c-6.72,4.53-6.52,10.83,0.28,15.06c3.26,2.03,6.67,3.85,10.44,4.59c2.52,0.49,3.76,1.17,3.2,4.08c-0.43,2.24,1.24,3.78,3.2,4.53
	c2.78,1.06,5.7,1.75,8.5,2.75c1.58,0.56,4.44-0.71,4.18,2.77c-0.26,3.5-2.74,3.03-5.06,3.02c-2.66-0.01-5.34-0.13-7.98,0.13
	c-1.92,0.19-4.89-1.32-4.84,2.9c0.05,3.93,2.55,3,4.75,3.04c7.15,0.13,14.3,0.28,21.44,0.42c2.71,3.42,5.48,6.8,7.14,10.91
	c-3.57,1.56-3.37,3.36-0.19,5.07c1.58,0.85,3.37,1.31,5.06,1.95c4.17,5.5,8.91,10.64,11.1,17.39c-0.78,0.26-1.56,0.54-2.35,0.78
	c-1.77,0.55-3.58,1.15-3.63,3.42c-0.06,2.37,2.19,2.16,3.55,2.71c3.35,1.36,6.8,2.46,10.21,3.66c1.51,1.87,3.25,3.57,4.12,5.88
	c-0.55,7.45,1.29,7.03-7.09,6.83c-15.01-0.36-29.83-1.98-44.16-6.84c-32.32-10.96-44.41-35.54-42.37-66.42
	c1.22-18.46,6.67-35.84,14.73-52.46c1.45-2.98,3.35-5.04,6.23-6.7c3.29-1.89,6.33-4.29,9.21-6.78c1.64-1.42,2.63-1.32,4.17-0.01
	c1.67,1.42,0.97,2.43-0.01,3.74c-1.79,2.39-3.57,4.8-5.15,7.33c-1.95,3.13-2.74,6.47-0.45,9.82c2.29,3.34,5.68,4.51,9.53,4.3
	c1.8-0.1,3.59-0.66,5.37-1.06c1.18-0.26,2.52-1.54,3.26,0.55C459.85,438.32,457.67,438.02,456.91,438.88z"/>
<path class="st1" d="M767.79,458.83c-10.07,12.73-28.66,9.94-35.73-5.33c-3.61-7.8-5.25-16.13-6.03-24.55
	c-1.91-20.74-2.09-41.46,2.66-61.93c1.52-6.54,3.87-12.81,8.97-17.49c5.22-4.79,11.31-6.78,18.36-4.52
	c13.4,36.1,17.49,73.2,11.91,111.33C767.81,457.16,767.84,458,767.79,458.83z"/>
<path class="st1" d="M466.7,316.02c-2.58-1.49-5.06-3.22-7.76-4.42c-4.04-1.79-6.43,0-6.33,4.46c0.08,3.43,1.57,6.44,2.98,9.44
	c4.4,9.38,10.21,17.91,16.09,26.39c1.47,2.12,2.48,3.64,0.62,6.52c-3.28,5.07-1.83,8.57,5.03,15.09c-4.53,1.31-9.12,1.54-13.38,3.2
	c-4.57,1.78-7.77,4.38-7.34,10.74c-5.36-4.31-9.95-8.08-14.63-11.73c-1.73-1.35-1.35-2.63-0.58-4.33
	c4.66-10.18,2.74-19.03-4.43-27.68c-5.05-6.09-6.02-14.3-7.65-21.91c-6.07-28.39-3.26-55.69,9.05-82.26
	c5.02-10.84,12.92-16.72,24.18-20.01c0.53,16.7,3.46,33.12,5.3,50.36c-3.43-2.66-6.22-4.95-9.15-7.04
	c-1.89-1.35-3.97-2.78-6.41-1.23c-2.51,1.59-2.51,4.19-2.17,6.7c0.87,6.46,2.83,12.66,5.25,18.68c3.84,9.55,7.84,19.03,11.77,28.55
	C466.99,315.69,466.85,315.86,466.7,316.02z"/>
<path class="st1" d="M612.41,446.32c-6.53,1.19-13.05,2.37-19.58,3.56c-0.68-2.9,1.77-2.44,3.26-3.12
	c5.28-2.38,10.36-4.98,10.64-11.86l-0.08,0.06c1.55-0.38,0.83-1.69,1.07-2.6c0.01-1.18,0.02-2.36,0.03-3.54
	c0.28-12.04-10.35-20.78-22.2-18.25c-13.89,2.96-20.13,14.69-14.64,28.01c1.18,2.85,1.26,3.89-2.1,4.61
	c-4.21,0.9-8.13,2.87-11.87,5.04c-10.32,5.97-12.01,12.52-5.91,22.61c-8.09,8.97-18.66,14.09-29.4,18.94
	c-1.51,0.68-3.14,1.14-4.54,1.98c-2.12,1.26-3.47,0.62-5.15-0.99c-11.85-11.33-23.85-22.5-35.69-33.84
	c-1.95-1.87-5.2-2.63-5.56-5.99c8.38,2.99,15.01,0.15,20.32-6.37c2.69-3.3,5-6.93,7.48-10.42c5.18,5.71,8.29,7.83,19.04-8.24
	c0.32,0.7,0.67,1.24,0.8,1.83c1.98,9.09,8.44,11.15,15.48,4.75c5.75-5.22,7.67-12.39,8.72-19.68c0.49-3.36,1.5-3.8,4.36-2.75
	c4.69,1.73,9.58,2.79,14.54,3.44c3.88,0.51,7.89,0.66,10.65-2.63c3.02-3.59,0.91-7.21-0.73-10.7c-0.27-0.58-0.44-1.2-0.76-2.11
	c4.39,0.32,8.48,0.74,12.58,0.88c5.12,0.18,8.13-2.74,9.26-7.43c1.04-4.31,0.83-8.39-4.4-10.17c-0.89-0.3-2.2-0.85-1.08-2.02
	c3.98-4.14,5.13-11.19,12.31-12.07c1.93-0.24,4.03-1.27,5.62,0.53c1.38,1.57,0.62,3.46,0.08,5.22c-2.05,6.77-5.88,12.63-9.55,18.57
	c-0.9,1.46-2.59,2.77,0.08,4.38c2.29,1.39,2.84-0.25,3.78-1.55c3.01-4.19,6.03-8.4,9.99-11.77c1.48-1.26,3.08-3.01,5.24-1.89
	c2.02,1.05,2.9,3.15,3.18,5.38c0.45,3.55-0.89,6.63-3.1,9.2c-2.27,2.63-4.89,4.97-7.44,7.35c-1.08,1.01-2.71,1.64-0.84,3.37
	c1.29,1.19,2.16,3.07,4.46,1.32c1.97-1.5,4.17-2.73,6.37-3.91c0.82-0.44,2.13-0.83,2.8-0.47c1.25,0.67,0.57,2.05,0.28,3.13
	c-1.48,5.67-3.62,11.18-6.72,16.05c-3.98,6.27-4.89,12.44-2.21,19.29C611.88,443,612.05,444.7,612.41,446.32z M518.38,437.58
	c-10.38-0.24-19.1,7.53-19.48,17.36c-0.41,10.37,7.86,19.93,17.34,20.05c11.13,0.15,19.8-7.87,20.04-18.54
	C536.53,445.15,529.59,437.84,518.38,437.58z"/>
<path class="st1" d="M473.18,283.2c-1.08-9.52-2.04-17.51-2.88-25.51c-1.26-11.91-2.86-23.79-2.62-35.8
	c0.03-1.67-0.87-4.15,1.5-4.72c2.1-0.51,2.98,1.79,3.95,3.24c3.97,5.95,6.8,12.52,10.48,20.24c1.54-8.42,2.89-15.6,4.15-22.8
	c1.46-8.35,1.42-8.38,9.83-10.34c3.71-0.87,7.45-1.61,11.29-2.44c0.2,2.05-1.35,2.75-2.22,3.76c-16.13,18.73-23.96,40.75-25.96,65.1
	c-2.02,24.53,1.71,48.4,8.43,71.92c0.45,1.56,0.87,3.13,1.35,4.85c-3.54,0.49-6.92,0.02-10.11,1.23c-1.27,0.48-2.19-0.23-2.97-1.24
	c-6.74-8.66-13.73-17.15-18.67-27.05c-0.51-1.03-0.81-2.17-1.17-3.27c-0.38-1.16-0.47-2.32,0.5-3.25c1.2-1.16,2.58-0.74,3.67,0
	c3.84,2.57,7.6,5.29,11.6,8.1c0.9-2.12-0.4-3.67-0.92-5.22c-5.31-15.74-10.77-31.43-16.07-47.17c-0.58-1.73-2.43-4.24-0.58-5.38
	c2.06-1.26,3.87,1.31,5.3,2.76C464.85,274.02,468.43,278.06,473.18,283.2z"/>
<path class="st1" d="M438.12,395.04c-4.05-2.39-7.15-4.21-10.23-6.05c-12.45-7.45-24.55-15.39-35.02-25.55
	c-2.64-2.56-5.11-5.29-6.6-8.7c-0.99-2.26-1.07-4.58,0.7-6.55c1.82-2.03,3.97-1.2,5.99-0.38c6.79,2.73,12.11,7.56,17.33,12.47
	c4.07,3.83,7.92,7.89,12.29,12.29c1.4-6.09,0.55-11.67,2.14-16.91c1.11-3.65,1.79-8.23,6.63-8.15c4.67,0.09,6.41,4.22,7.54,8.2
	c1.72,6.1-1.22,11.13-4.34,15.81c-2.04,3.07-1.67,4.6,1.15,6.81c10.36,8.1,20.47,16.53,30.78,24.7c2.29,1.82,3.1,3.07,1.31,5.96
	c-5.22,8.41-5.06,8.51-12.74,2.06c-3.44-2.89-6.6-7.54-10.42-8.16c-3.71-0.6-5.82,5.4-9.19,7.96c-5.44,4.14-11.13,7.37-18.21,6.97
	c-3.23-0.18-6.53-0.84-7.67-4.44c-1.12-3.51,1.92-5.09,4.06-6.68C420.63,401.49,428.63,398.24,438.12,395.04z"/>
<path class="st1" d="M512.57,552.75c0.46,3.72,3.69,4.44,6.32,5.6c17.72,7.82,35.98,14.09,54.86,18.53c0.77,0.18,1.46,0.66,2.19,1
	c-11.05,11.38-23.85,20.63-36.43,30.18c-2.75,2.09-4.29,0.01-6.1-1.15c-7.65-4.88-7.66-4.93-2.83-12.67
	c1.65-2.64,3.47-5.18,5.69-8.47c-4.15,0.77-7.5,1.61-10.9,1.95c-1.83,0.18-4.5,2.31-5.53-1c-1.03-3.3-4.78-6.23-1.06-10.35
	c3.09-3.43,5.52-7.45,8.24-11.22c0.15-0.33,0.3-0.65,0.45-0.98c-0.4,0.04-0.8,0.09-1.2,0.13c-4.33,1.07-8.64,2.22-12.99,3.18
	c-1.6,0.35-3.92,1.77-4.57-0.95c-0.73-3.06-4.82-5.78-1.44-9.36C508.83,555.52,510.79,554.22,512.57,552.75z"/>
<path class="st1" d="M563.65,324.14c1.62-12.92,2.88-25.13,6-37.02c0.72-2.73,1.27-5.55,2.41-8.1c1.05-2.33,1.2-6.24,5.21-5.46
	c3.62,0.71,3.39,4.02,3.48,6.86c0.21,7.21-1.16,14.23-2.54,21.24c-2.12,10.76-5.01,21.34-7.94,31.9c-0.25,0.92-0.38,1.88-0.64,3.18
	c4.27-2.04,8.07-3.96,11.97-5.68c2.14-0.94,4.46-1.38,6.83-1.11c3,0.35,4.87,1.99,5.27,5.05c0.38,2.88-0.87,4.83-3.59,5.8
	c-5.86,2.09-12,2.76-18.14,3.01c-3.46,0.14-5.44,0.63-5.68,4.77c-0.27,4.61-1.24,9.23-2.36,13.73c-1.42,5.74-6.09,2.19-9.08,2.36
	c-2.78,0.16-1.05-2.85-0.79-4.22c1.46-7.67,3.04-15.32,4.92-22.89c0.65-2.62,0.04-3.93-2.21-5.17c-4.53-2.48-8.8-5.38-12.43-9.12
	c-1.63-1.68-3.16-3.43-4.03-5.65c-0.9-2.3-1.13-4.6,0.81-6.49c1.98-1.93,4.26-1.47,6.48-0.39c4.26,2.07,7.64,5.28,10.98,8.54
	C560.09,320.76,561.63,322.21,563.65,324.14z"/>
<path class="st1" d="M448.99,432.74c-2.35-0.68-5.45-0.87-5.35-4.84c0.08-3.28,6.06-11.91,8.12-11.66c2.1,0.25,7.81,6.87,7.64,8.85
	C459.07,429.1,453.94,432.99,448.99,432.74z"/>
<path class="st1" d="M521.91,621.36c-0.66-2.78-0.29-5.48,0.43-8.18c1.89-7.19,1.78-7.04,7.87-2.95c2.94,1.98,3.02,3.24,0.12,5.21
	c-2.58,1.75-4.9,3.89-7.37,5.83C522.75,621.42,522.36,621.33,521.91,621.36z"/>
<path class="st1" d="M483.65,211.68c0.19,4.72-1.42,9.08-2.17,13.78c-1.73-1.82-1.89-4.07-2.63-6.03
	C476.46,213.07,476.52,213.05,483.65,211.68z"/>
<path class="st1" d="M493.01,572.81c2.61-3.26,4.5-5.69,6.48-8.04c0.58-0.69,1.21-2.16,2.15-1.53c1.7,1.15,1.65,3.45,2.46,5.21
	c0.63,1.37-0.48,1.79-1.39,2.03C499.87,571.25,497.01,571.87,493.01,572.81z"/>
<path class="st1" d="M507.84,591.2c2.2-3.03,3.92-5.41,5.7-7.87C518.02,589.65,517.89,589.85,507.84,591.2z"/>
<path class="st1" d="M470.75,450.96c-0.88-0.02-1.61-0.29-2.01-1.16C469.41,450.19,470.08,450.58,470.75,450.96z"/>
<path class="st1" d="M467.14,315.52c0.45,0.34,0.67,0.72,0.15,1.19c-0.2-0.23-0.4-0.46-0.59-0.69
	C466.85,315.86,466.99,315.69,467.14,315.52z"/>
<path class="st0" d="M522.7,370.98c0.13,0.06,0.28,0.11,0.39,0.2c0.05,0.04,0.01,0.19,0,0.28c-0.1-0.19-0.2-0.37-0.3-0.56
	C522.79,370.9,522.7,370.98,522.7,370.98z"/>
<path class="st3" d="M534.58,545.2c18.58,3.84,36.6,5.09,54.82,4.88c12.77-0.15,23.8-4.33,33.69-11.95
	c11.38-8.76,21.43-18.93,30.66-29.87c1.68,0.64,1.65,2.17,2.37,3.19c1.06,1.5,1.34,4.44,4.1,3.14c2.61-1.23,3.22-3.74,1.97-6.39
	c-1.55-3.31-3.24-6.55-4.91-9.81c-8.11-15.85-16.21-31.71-24.37-47.54c-1.14-2.21-2.29-4.13,0.76-5.81
	c3.41-1.88,4.01,0.99,5.02,2.88c10.18,18.9,20.25,37.85,30.5,56.71c1.8,3.32,1.74,6.17,0,9.39c-3.87,7.18-7.57,14.45-11.35,21.67
	c-7.49,14.32-18.85,24.81-32.67,32.84c-3.21,1.87-6.68,2.88-10.35,3.41c-19.12,2.74-37.82,0.65-56.26-4.67
	c-6.07-1.75-12.11-3.63-18.21-5.29c-3.01-0.82-4.42-2.54-4.6-5.65C535.57,552.86,535.05,549.42,534.58,545.2z"/>
<path class="st3" d="M644.43,488.09c2.73,3.71,3.87,7.93,5.84,11.73c0.77,1.49,0.43,2.94-0.58,4.2
	c-12.48,15.62-26.15,29.8-45.53,36.88c-13.31,4.86-27.15,4.58-40.94,3.52c-8.42-0.65-16.77-2.28-25.14-3.49
	c-3.92-0.57-7.61-9.21-5.14-12.27c1.18-1.47,3.15-0.77,4.75-0.71c17.94,0.73,35.51-1.36,52.61-6.87
	c19.8-6.38,37.15-16.93,52.19-31.29C643.04,489.25,643.67,488.75,644.43,488.09z"/>
<path class="st3" d="M531.39,505.45c-0.29-0.03-0.83,0.07-1.22-0.14c-2.06-1.1-2.38-12.48-0.23-13.61
	c14.34-7.53,26.64-18.16,40.43-26.5c13.07-7.91,27.78-10.71,42.55-13.24c0.82-0.14,1.65-0.21,2.47-0.32
	c3.41-0.43,7.69-3.21,9.95-1.11c3.09,2.87,4.4,7.66,6.46,11.63c1.11,2.14-0.8,2.53-1.97,3.23c-22.54,13.62-46.39,24.36-71.48,32.33
	c-7.27,2.31-14.64,4.31-21.96,6.43C534.8,504.62,533.18,504.99,531.39,505.45z"/>
<path class="st3" d="M544.34,522.92c-2.33,0-4.7-0.28-6.98,0.06c-4.54,0.68-5.96-1.45-6.57-5.6c-0.7-4.81,0.4-6.79,5.66-7.84
	c34.21-6.78,66.35-18.99,95.67-38.11c2.76-1.8,3.77-1.24,5.16,1.47c4.97,9.73,5.04,9.65-3.03,16.97
	c-21.18,19.21-46.11,29.71-74.52,32.18c-2.64,0.23-5.27,0.65-7.92,0.79c-2.49,0.14-4.99,0.03-7.49,0.03
	C544.34,522.89,544.34,522.91,544.34,522.92z"/>
<path class="st0" d="M551.03,470.84c-6.1-10.08-4.41-16.63,5.91-22.61c3.74-2.17,7.66-4.14,11.87-5.04c3.36-0.72,3.28-1.76,2.1-4.61
	c-5.49-13.32,0.75-25.05,14.64-28.01c11.86-2.52,22.49,6.21,22.2,18.25c-0.41-0.72-0.77-1.47-1.25-2.13
	c-2.51-3.41-6.36-4.38-9.48-2.15c-3.24,2.31-4.19,5.45-2.24,9.09c1.83,3.4,5.59,4.33,9.4,2.5c0.85-0.41,1.39-1.48,2.56-1.22
	c-0.28,6.88-5.37,9.48-10.64,11.86c-1.49,0.67-3.94,0.22-3.26,3.12c-1.95,0.76-3.95,1.25-6.06,1.09c-1.4-2.83-4.07-3.09-6.72-3.21
	c-8.45-0.4-15.86,2.63-22.62,7.33c-5.1,3.55-5.33,6.9-1.3,11.96C554.92,468.97,553.4,470.48,551.03,470.84z"/>
<path class="st1" d="M453.5,443.9c6.11,5.58,12.27,11.1,18.32,16.74c11.15,10.4,22.24,20.86,33.32,31.32
	c1.17,1.1,2.71,2.06,2.57,4.03c-10.29-5.69-21.45-8.36-33.04-9.54c-1.14-1.32-2.68-2.35-3.03-4.23c0.49-0.07,0.99-0.14,1.48-0.2
	c2.03-0.21,4.85,1.29,4.86-2.81c0.01-3.85-2.87-2.56-4.61-2.75c-5.6-0.62-11.31-0.29-16.84-1.65c-1.24-0.31-2.72-0.53-2.87-2.27
	c-0.16-1.97,1.21-2.64,2.77-2.85c4.6-0.64,9.21-1.16,13.82-1.74c0.96-0.12,2.2-0.06,2.08-1.49c-0.09-1.1,0-2.64-1.15-3.07
	c-0.96-0.36-2.23,0.1-3.36,0.23c-10.43,1.23-20.88,2.52-30.64-3.01c-4.8-2.72-5.06-5.54-0.72-8.59
	C441.69,448.35,447.65,446.23,453.5,443.9z"/>
<path class="st0" d="M453.5,443.9c-5.86,2.33-11.82,4.46-17.02,8.12c-4.34,3.05-4.08,5.86,0.72,8.59c9.76,5.54,20.2,4.25,30.64,3.01
	c1.13-0.13,2.4-0.59,3.36-0.23c1.14,0.43,1.05,1.96,1.15,3.07c0.12,1.43-1.12,1.37-2.08,1.49c-4.61,0.58-9.22,1.11-13.82,1.74
	c-1.56,0.22-2.93,0.88-2.77,2.85c0.14,1.74,1.63,1.96,2.87,2.27c5.53,1.37,11.23,1.04,16.84,1.65c1.74,0.19,4.63-1.1,4.61,2.75
	c-0.02,4.1-2.84,2.6-4.86,2.81c-0.49,0.05-0.99,0.13-1.48,0.2c-1.61-0.4-3.26-0.82-4.39,0.91c-1.15,1.75,0.12,3.05,0.92,4.44
	c0.89,1.53,1.77,3.07,2.65,4.61c-7.15-0.14-14.3-0.28-21.44-0.42c-2.2-0.04-4.7,0.89-4.75-3.04c-0.05-4.22,2.91-2.71,4.84-2.9
	c2.64-0.26,5.32-0.14,7.98-0.13c2.31,0.01,4.8,0.48,5.06-3.02c0.26-3.47-2.6-2.2-4.18-2.77c-2.8-1-5.72-1.69-8.5-2.75
	c-1.96-0.75-3.63-2.29-3.2-4.53c0.56-2.91-0.68-3.59-3.2-4.08c-3.77-0.74-7.18-2.56-10.44-4.59c-6.8-4.23-7-10.53-0.28-15.06
	c5.83-3.93,12.39-6.36,19.06-8.45C452.34,441.59,452.92,442.74,453.5,443.9z"/>
<path class="st0" d="M474.67,486.44c11.59,1.18,22.75,3.85,33.04,9.54c0,0-0.04-0.06-0.04-0.06c0.39,0.88,1,1.37,2.02,1.14
	c0,0-0.06-0.13-0.06-0.13c-0.2,0.82,0.39,1.12,0.95,1.45c0.04,2.79,0.08,5.59,0.11,8.38c-5,0.37-10,0.75-16.06,1.2
	c6.29,2.66,11.54,4.88,16.78,7.11c0.05,1.94,0.1,3.88,0.15,5.82c-2.46-0.05-4.22-2.61-6.89-1.92c-0.07-0.1-0.14-0.2-0.22-0.31
	c0.1,0.08,0.19,0.16,0.29,0.25c0.42,4.19,2.23,6.54,6.85,5.15c0.02,1.9,0.03,3.8,0.05,5.7c-2.3,0.45-4.6,0.9-6.9,1.35
	c-1.85-1.7-3.09-3.8-4.01-6.11c0.02-0.88,0.03-1.75-0.98-2.16c0,0,0.05,0.07,0.05,0.07c-1.16-3.39-0.77-7.96-6.19-8.1
	c-2.91-3.8-5.76-7.64-7.94-11.91c2.35-0.66,5.66,0.88,6.02-3.79c0.37-4.73-2.92-4.32-5.54-4.93c-2.38-0.55-4.85-0.72-7.28-1.05
	C477.26,491.03,475.48,489.04,474.67,486.44z M502.79,500.78c-2.36-1.42-4.24-3.91-7.19-2.89c-0.39,0.13-0.61,2.77-0.11,3.13
	C497.8,502.66,500.31,501.49,502.79,500.78z"/>
<path class="st3" d="M516.7,504.15c0.85-2.61-2.03-6.28,2.12-8.25c2.22-1.05,3.58-1.14,3.86,2.06c1.2,13.37,2.64,26.73,3.95,40.09
	c0.53,5.45,0.86,10.93,1.48,16.37c0.24,2.12-0.28,2.9-2.35,2.21c-3.41-1.15-5.91-2.47-6.1-7.1
	C519.03,534.44,517.75,519.39,516.7,504.15z"/>
<path class="st1" d="M556.13,467.05c-4.03-5.07-3.8-8.42,1.3-11.96c6.76-4.7,14.17-7.73,22.62-7.33c2.65,0.12,5.32,0.38,6.72,3.21
	C575.41,454.14,565.6,460.26,556.13,467.05z"/>
<path class="st1" d="M478.88,493.11c2.43,0.34,4.9,0.5,7.28,1.05c2.62,0.61,5.91,0.2,5.54,4.93c-0.36,4.67-3.67,3.13-6.02,3.79
	C483.42,499.63,481.15,496.37,478.88,493.11z"/>
<path class="st0" d="M501.72,538.05c-3.41-1.2-6.87-2.3-10.21-3.66c-1.35-0.55-3.61-0.34-3.55-2.71c0.06-2.26,1.86-2.87,3.63-3.42
	c0.79-0.24,1.56-0.52,2.35-0.78C498,529.92,499.76,534.06,501.72,538.05z"/>
<path class="st1" d="M511.42,515.06c-5.25-2.22-10.49-4.44-16.78-7.11c6.06-0.45,11.06-0.82,16.06-1.2
	C510.41,509.58,512.17,512.21,511.42,515.06z"/>
<path class="st1" d="M504.75,531.1c2.3-0.45,4.6-0.9,6.9-1.35c-0.01,2.24-0.01,4.49-0.02,6.73c-0.98-0.21-1.95-0.42-2.93-0.63
	c0,0,0.07,0.06,0.07,0.06c-0.2-1.1-1.08-0.75-1.76-0.82C506.26,533.76,505.51,532.43,504.75,531.1z"/>
<path class="st0" d="M482.84,510.08c-1.69-0.64-3.48-1.1-5.06-1.95c-3.18-1.71-3.38-3.51,0.19-5.07
	C480.28,504.93,481.94,507.24,482.84,510.08z"/>
<path class="st1" d="M511.6,524.05c-4.62,1.4-6.43-0.96-6.85-5.15l-0.07,0.06c2.67-0.69,4.43,1.88,6.89,1.92
	C511.58,521.94,511.59,522.99,511.6,524.05z"/>
<path class="st1" d="M493.63,514.8c5.42,0.13,5.03,4.7,6.19,8.1C496.6,521.08,495.47,517.66,493.63,514.8z"/>
<path class="st0" d="M508.71,535.85c0.97,0.21,1.95,0.42,2.93,0.63c0.87,1.47,0.73,3.05,0.64,5.19
	C510.18,539.89,508.53,538.47,508.71,535.85z"/>
<path class="st1" d="M509.69,497.07c-1.02,0.23-1.63-0.26-2.02-1.14C508.59,495.87,509.39,496.03,509.69,497.07z"/>
<path class="st1" d="M499.76,522.83c1,0.41,0.99,1.29,0.98,2.16C499.9,524.5,499.71,523.72,499.76,522.83z"/>
<path class="st0" d="M507.02,535.08c0.68,0.07,1.56-0.29,1.76,0.82C507.7,536.69,507.61,535.35,507.02,535.08z"/>
<path class="st1" d="M510.58,498.38c-0.56-0.32-1.15-0.62-0.95-1.45C509.95,497.42,510.27,497.9,510.58,498.38z"/>
<path class="st0" d="M518.38,437.58c11.21,0.26,18.15,7.58,17.9,18.87c-0.24,10.67-8.9,18.69-20.04,18.54
	c-9.48-0.12-17.75-9.69-17.34-20.05C499.29,445.1,508.01,437.33,518.38,437.58z M535.04,455.45c0.1-3.84-3.08-7.22-6.77-7.21
	c-3.47,0.01-6.56,3.15-6.67,6.77c-0.13,4.04,2.73,7.01,6.73,7C532.1,462,534.95,459.22,535.04,455.45z"/>
<path class="st4" d="M606.74,434.9c-1.17-0.25-1.71,0.82-2.56,1.22c-3.8,1.82-7.57,0.9-9.4-2.5c-1.96-3.64-1-6.77,2.24-9.09
	c3.12-2.23,6.98-1.26,9.48,2.15c0.48,0.66,0.84,1.41,1.25,2.13c-0.01,1.19-0.02,2.37-0.03,3.55c-0.95,0.62-1.37,1.47-1.07,2.6
	L606.74,434.9z"/>
<path class="st0" d="M606.66,434.97c-0.3-1.14,0.11-1.98,1.07-2.6C607.49,433.28,608.21,434.59,606.66,434.97z"/>
<path class="st0" d="M526.25,564.3c0.4-0.04,0.8-0.09,1.2-0.13c-0.15,0.33-0.3,0.65-0.45,0.98
	C526.75,564.87,526.5,564.59,526.25,564.3z"/>
<path class="st1" d="M708.65,270.02c4.07,3.59,7.44,7.81,10.82,12.02C711.89,282.21,708.82,278.8,708.65,270.02z"/>
<path class="st1" d="M634.75,260.51c0.08-3.54-1.12-7.26,4.58-6.72c5.25,0.5,7.95,2.17,8.03,6.17c0.08,4.39-3.38,6.87-9.06,6.94
	C632.35,266.97,635.78,262.44,634.75,260.51z"/>
<path class="st1" d="M502.79,500.78c-2.48,0.72-5,1.88-7.29,0.24c-0.5-0.36-0.28-2.99,0.11-3.13
	C498.56,496.87,500.43,499.36,502.79,500.78z"/>
<path class="st1" d="M504.75,518.9c-0.1-0.08-0.19-0.16-0.29-0.25c0.07,0.1,0.14,0.2,0.22,0.31
	C504.68,518.96,504.75,518.9,504.75,518.9z"/>
<path class="st4" d="M535.04,455.45c-0.1,3.77-2.94,6.56-6.71,6.56c-4,0.01-6.86-2.96-6.73-7c0.11-3.62,3.2-6.76,6.67-6.77
	C531.96,448.22,535.14,451.61,535.04,455.45z"/>
</svg>
